<?xml version="1.0" standalone="no"?>
<!DOCTYPE svg PUBLIC "-//W3C//DTD SVG 20010904//EN"
 "http://www.w3.org/TR/2001/REC-SVG-20010904/DTD/svg10.dtd">
<svg version="1.0" xmlns="http://www.w3.org/2000/svg"
 width="169.000000pt" height="169.000000pt" viewBox="0 0 169.000000 169.000000"
 preserveAspectRatio="xMidYMid meet">
<metadata>
Created by potrace 1.16, written by Peter Selinger 2001-2019
</metadata>
<g transform="translate(0.000000,169.000000) scale(0.100000,-0.100000)"
fill="#000000" stroke="none">
<path d="M0 845 l0 -845 845 0 845 0 0 845 0 845 -845 0 -845 0 0 -845z m801
87 c71 -140 129 -258 129 -263 0 -6 -27 -9 -62 -7 l-63 3 -101 194 -102 193
-46 -82 c-25 -45 -46 -87 -46 -94 0 -6 9 -24 20 -41 l20 -30 -41 -5 c-39 -5
-41 -8 -69 -70 l-29 -65 -70 -3 c-39 -2 -71 0 -71 3 0 6 43 90 207 403 l65
123 64 -3 65 -3 130 -253z m299 33 c0 -262 -4 -277 -71 -295 -23 -6 -42 -10
-43 -8 -14 20 -55 98 -60 116 -6 18 -4 22 16 22 43 0 48 15 48 162 l0 138 -35
0 c-35 0 -35 0 -35 45 l0 45 90 0 90 0 0 -225z m215 201 c58 -58 55 -153 -8
-217 l-34 -34 84 -125 83 -125 -61 -3 c-33 -2 -66 2 -73 7 -7 6 -47 60 -90
120 -68 98 -76 114 -76 155 0 46 0 46 34 46 42 0 66 22 66 60 0 34 -23 50 -69
50 -30 0 -31 1 -31 45 l0 45 75 0 c67 0 79 -3 100 -24z m-637 -341 c39 -80 72
-150 72 -155 0 -6 -22 -10 -48 -10 l-49 0 -52 107 -52 107 22 48 c12 26 25 48
28 48 4 0 39 -65 79 -145z"/>
</g>
</svg>
